<?xml version="1.0" encoding="utf-8"?>
<svg viewBox="0 0 500 500" xmlns="http://www.w3.org/2000/svg">
  <defs>
    <linearGradient id="d" x1="50%" x2="50%" y1="50%" y2="100%">
      <stop stop-color="#fff" offset="0"/>
      <stop stop-color="#E9E5E5" offset="1"/>
    </linearGradient>
    <linearGradient id="c" x1="50%" x2="50%" y2="87.052%">
      <stop stop-color="#0339F1" offset="0"/>
      <stop stop-color="#01ADE5" offset="1"/>
    </linearGradient>
    <linearGradient id="b" x1="14.011%" x2="73.603%" y1="9.5347%" y2="75.34%">
      <stop stop-color="#0756EE" offset="0"/>
      <stop stop-color="#00A3F5" offset="0.3745"/>
      <stop stop-color="#18B5B6" offset="0.7171"/>
      <stop stop-color="#80DF43" offset="1"/>
    </linearGradient>
    <linearGradient id="a" x1="13.017%" x2="86.649%" y1="3.0728%" y2="90.776%">
      <stop stop-color="#20BBA6" offset="0"/>
      <stop stop-color="#9BEC23" offset="0.4988"/>
      <stop stop-color="#D9EF35" offset="1"/>
    </linearGradient>
  </defs>
  <rect width="500" height="500" style="stroke: rgb(0, 0, 0); fill: rgb(237, 237, 237);"/>
  <g fill="#a4c639" transform="matrix(0.448545, 0, 0, 0.448545, 417.546539, 114.522491)" style="">
    <g transform="matrix(1, 0, 0, 1, 0, 0)" stroke-width="14.4" stroke="#FFF">
      <ellipse cy="41" rx="91" ry="84"/>
      <rect rx="22" height="182" width="182" y="20" x="-91"/>
    </g>
    <g stroke="#FFF" stroke-width="7.2" transform="matrix(-1, 0, 0, 1, 0, 0)">
      <rect rx="6.5" transform="rotate(29)" height="86" width="13" y="-86" x="14"/>
      <rect rx="24" height="133" width="48" y="41" x="-143"/>
      <rect rx="24" height="133" width="48" y="41" x="-143" transform="matrix(1, 0, 0, 1, 85, 97)"/>
    </g>
    <g id="g-1" stroke="#FFF" stroke-width="7.2">
      <rect rx="6.5" transform="rotate(29)" height="86" width="13" y="-86" x="14"/>
      <rect id="rect-1" rx="24" height="133" width="48" y="41" x="-143"/>
      <rect rx="24" height="133" width="48" y="41" x="-143" transform="matrix(1, 0, 0, 1, 85, 97)"/>
    </g>
    <g id="g-2">
      <ellipse cy="41" rx="91" ry="84"/>
      <rect rx="22" height="182" width="182" y="20" x="-91"/>
    </g>
  </g>
  <g stroke="#FFF" stroke-width="7.2" fill="#FFF" transform="matrix(0.448545, 0, 0, 0.448545, 417.546539, 114.522491)" style="">
    <path d="m-95 44.5h190"/>
    <circle cx="-42" r="4"/>
    <circle cx="42" r="4"/>
  </g>
  <g fill-rule="evenodd" transform="matrix(0.795202, 0, 0, 0.795202, 8.483715, 256.015381)" style="">
    <rect x="1" y="1" width="194" height="194" rx="45" fill="url(#d)" stroke="#D9D9D9"/>
    <path d="m32.882 137.54h-4.5633v-60.979h4.5633v60.979zm-2.3466-75.927c-1.9244 0-3.5158-1.5265-3.5158-3.4509 0-1.9812 1.5833-3.5158 3.5158-3.5158 1.9812 0 3.5564 1.5265 3.5564 3.5158 0 1.9244-1.5752 3.4509-3.5564 3.4509z" fill="url(#c)"/>
    <path d="m77.205 138.73c-22.313 0-36.409-16.248-36.409-42.076 0-25.699 14.161-42.011 36.409-42.011s36.401 16.313 36.401 42.011c0 25.829-14.096 42.076-36.401 42.076zm0-79.89c-19.422 0-31.821 14.664-31.821 37.813 0 23.166 12.456 37.887 31.821 37.887 19.422 0 31.821-14.721 31.821-37.887 0-23.157-12.399-37.813-31.821-37.813z" fill="url(#b)"/>
    <path d="m146.1 138.73c-16.751 0-28.76-9.4595-29.442-22.987h4.474c0.68206 11.092 11.1 18.854 25.309 18.854 13.868 0 23.547-7.8761 23.547-18.513 0-8.5582-5.7731-13.479-19.471-16.93l-9.6787-2.3791c-15.111-3.8569-21.972-9.971-21.972-20.21 0-12.74 11.895-21.915 26.787-21.915 15.395 0 26.892 9.0616 27.404 21.063h-4.474c-0.62522-9.7924-10.19-16.93-23.044-16.93-12.293 0-22.086 7.3646-22.086 17.668 0 8.1603 6.0005 12.854 19.13 16.134l9.1184 2.3222c15.793 3.9056 22.873 9.971 22.873 20.835 0 13.527-11.376 22.987-28.476 22.987z" fill="url(#a)"/>
  </g>
  <g transform="matrix(0.511587, 0, 0, 0.511587, 184.982147, 400.595825)" style="">
    <path d="M132-206c0,1-1,1-1,1h-1c-1,0-1-1-2-2,0,0-1-1-1-2s0-1,1-1l2,1c1,1,2,2,2,3m-18-10c0-5-2-8-5-8,0,0,0,1-1,1v2h3c0,2,1,3,1,5h2m35-5c2,0,3,2,4,5h2c-1-1-1-2-1-3s0-2-1-3-2-2-3-2c0,0-1,1-2,1,0,1,1,1,1,2m-30,16c-1,0-1,0-1-1s0-2,1-3c2,0,3-1,3-1,1,0,1,1,1,1,0,1-1,2-3,4h-1m-11-1c-4-2-5-5-5-10,0-3,0-5,2-7,1-2,3-3,5-3s3,1,5,3c1,3,2,6,2,9v1,1h1v-1c1,0,1-2,1-6,0-3,0-6-2-9s-4-5-8-5c-3,0-6,2-7,5-2,4-2.4,7-2.4,12,0,4,1.4,8,5.4,12,1-1,2-1,3-2m125,141c1,0,1-0.4,1-1.3,0-2.2-1-4.8-4-7.7-3-3-8-4.9-14-5.7-1-0.1-2-0.1-2-0.1-1-0.2-1-0.2-2-0.2-1-0.1-3-0.3-4-0.5,3-9.3,4-17.5,4-24.7,0-10-2-17-6-23s-8-9-13-10c-1,1-1,1-1,2,5,2,10,6,13,12,3,7,4,13,4,20,0,5.6-1,13.9-5,24.5-4,1.6-8,5.3-11,11.1,0,0.9,0,1.4,1,1.4,0,0,1-0.9,2-2.6,2-1.7,3-3.4,5-5.1,3-1.7,5-2.6,8-2.6,5,0,10,0.7,13,2.1,4,1.3,6,2.7,7,4.3,1,1.5,2,2.9,3,4.2,0,1.3,1,1.9,1,1.9m-92-145c-1-1-1-3-1-5,0-4,0-6,2-9,2-2,4-3,6-3,3,0,5,2,7,4,1,3,2,5,2,8,0,5-2,8-6,9,0,0,1,1,2,1,2,0,3,1,5,2,1-6,2-10,2-15,0-6-1-10-3-13-3-3-6-4-10-4-3,0-6,1-9,3-2,3-3,5-3,8,0,5,1,9,3,13,1,0,2,1,3,1m12,16c-13,9-23,13-31,13-7,0-14-3-20-8,1,2,2,4,3,5l6,6c4,4,9,6,14,6,7,0,15-4,25-11l9-6c2-2,4-4,4-7,0-1,0-2-1-2-1-2-6-5-16-8-9-4-16-6-20-6-3,0-8,2-15,6-6,4-10,8-10,12,0,0,1,1,2,3,6,5,12,8,18,8,8,0,18-4,31-14v2c1,0,1,1,1,1m23,202c4,7.52,11,11.3,19,11.3,2,0,4-0.3,6-0.9,2-0.4,4-1.1,5-1.9,1-0.7,2-1.4,3-2.2,2-0.7,2-1.2,3-1.7l17-14.7c4-3.19,8-5.98,13-8.4,4-2.4,8-4,10-4.9,3-0.8,5-2,7-3.6,1-1.5,2-3.4,2-5.8,0-2.9-2-5.1-4-6.7s-4-2.7-6-3.4-4-2.3-7-5c-2-2.6-4-6.2-5-10.9l-1-5.8c-1-2.7-1-4.7-2-5.8,0-0.3,0-0.4-1-0.4s-3,0.9-4,2.6c-2,1.7-4,3.6-6,5.6-1,2-4,3.8-6,5.5-3,1.7-6,2.6-8,2.6-8,0-12-2.2-15-6.5-2-3.2-3-6.9-4-11.1-2-1.7-3-2.6-5-2.6-5,0-7,5.2-7,15.7v3.3,11.6,8.9,4.3,3c0,0.9-1,2.9-1,6-1,3.1-1,6.62-1,10.6l-2,11.1v0.17m-145-5.29c9.3,1.36,20,4.27,32.1,8.71,12.1,4.4,19.5,6.7,22.2,6.7,7,0,12.8-3.1,17.6-9.09,1-1.94,1-4.22,1-6.84,0-9.45-5.7-21.4-17.1-35.9l-6.8-9.1c-1.4-1.9-3.1-4.8-5.3-8.7-2.1-3.9-4-6.9-5.5-9-1.3-2.3-3.4-4.6-6.1-6.9-2.6-2.3-5.6-3.8-8.9-4.6-4.2,0.8-7.1,2.2-8.5,4.1s-2.2,4-2.4,6.2c-0.3,2.1-0.9,3.5-1.9,4.2-1,0.6-2.7,1.1-5,1.6-0.5,0-1.4,0-2.7,0.1h-2.7c-5.3,0-8.9,0.6-10.8,1.6-2.5,2.9-3.8,6.2-3.8,9.7,0,1.6,0.4,4.3,1.2,8.1,0.8,3.7,1.2,6.7,1.2,8.8,0,4.1-1.2,8.2-3.7,12.3-2.5,4.3-3.8,7.5-3.8,9.78,1,3.88,7.6,6.61,19.7,8.21m33.3-90.9c0-6.9,1.8-14.5,5.5-23.5,3.6-9,7.2-15,10.7-19-0.2-1-0.7-1-1.5-1l-1-1c-2.9,3-6.4,10-10.6,20-4.2,9-6.4,17.3-6.4,23.4,0,4.5,1.1,8.4,3.1,11.8,2.2,3.3,7.5,8.1,15.9,14.2l10.6,6.9c11.3,9.8,17.3,16.6,17.3,20.6,0,2.1-1,4.2-4,6.5-2,2.4-4.7,3.6-7,3.6-0.2,0-0.3,0.2-0.3,0.7,0,0.1,1,2.1,3.1,6,4.2,5.7,13.2,8.5,25.2,8.5,22,0,39-9,52-27,0-5,0-8.1-1-9.4v-3.7c0-6.5,1-11.4,3-14.6s4-4.7,7-4.7c2,0,4,0.7,6,2.2,1-7.7,1-14.4,1-20.4,0-9.1,0-16.6-2-23.6-1-6-3-11-5-15-2-3-4-6-6-9s-3-6-5-9c-1-4-2-7-2-12-3-5-5-10-8-15-2-5-4-10-6-14l-9,7c-10,7-18,10-25,10-6,0-11-1-14-5l-6-5c0,3-1,7-3,11l-6.3,12c-2.8,7-4.3,11-4.6,14-0.4,2-0.7,4-0.9,4l-7.5,15c-8.1,15-12.2,28.9-12.2,40.4,0,2.3,0.2,4.7,0.6,7.1-4.5-3.1-6.7-7.4-6.7-13m71.6,94.6c-13,0-23,1.76-30,5.25v-0.3c-5,6-10.6,9.1-18.4,9.1-4.9,0-12.6-1.9-23-5.7-10.5-3.6-19.8-6.36-27.9-8.18-0.8-0.23-2.6-0.57-5.5-1.03-2.8-0.45-5.4-0.91-7.7-1.37-2.1-0.45-4.5-1.13-7.1-2.05-2.5-0.79-4.5-1.82-6-3.07-1.38-1.26-2.06-2.68-2.06-4.27,0-1.6,0.34-3.31,1.02-5.13,0.64-1.1,1.34-2.2,2.04-3.2,0.7-1.1,1.3-2.1,1.7-3.1,0.6-0.9,1-1.8,1.4-2.8,0.4-0.9,0.8-1.8,1-2.9,0.2-1,0.4-2,0.4-3s-0.4-4-1.2-9.3c-0.8-5.2-1.2-8.5-1.2-9.9,0-4.4,1-7.9,3.2-10.4s4.3-3.8,6.5-3.8h11.5c0.9,0,2.3-0.5,4.4-1.7,0.7-1.6,1.3-2.9,1.7-4.1,0.5-1.2,0.7-2.1,0.9-2.5,0.2-0.6,0.4-1.2,0.6-1.7,0.4-0.7,0.9-1.5,1.6-2.3-0.8-1-1.2-2.3-1.2-3.9,0-1.1,0-2.1,0.2-2.7,0-3.6,1.7-8.7,5.3-15.4l3.5-6.3c2.9-5.4,5.1-9.4,6.7-13.4,1.7-4,3.5-10,5.5-18,1.6-7,5.4-14,11.4-21l7.5-9c5.2-6,8.6-11,10.5-15s2.9-9,2.9-13c0-2-0.5-8-1.6-18-1-10-1.5-20-1.5-29,0-7,0.6-12,1.9-17s3.6-10,7-14c3-4,7-8,13-10s13-3,21-3c3,0,6,0,9,1,3,0,7,1,12,3,4,2,8,4,11,7,4,3,7,8,10,13,2,6,4,12,5,20,1,5,1,10,2,17,0,6,1,10,1,13,1,3,1,7,2,12,1,4,2,8,4,11,2,4,4,8,7,12,3,5,7,10,11,16,9,10,16,21,20,32,5,10,8,23,8,36.9,0,6.9-1,13.6-3,20.1,2,0,3,0.8,4,2.2s2,4.4,3,9.1l1,7.4c1,2.2,2,4.3,5,6.1,2,1.8,4,3.3,7,4.5,2,1,5,2.4,7,4.2,2,2,3,4.1,3,6.3,0,3.4-1,5.9-3,7.7-2,2-4,3.4-7,4.3-2,1-6,3-12,5.82-5,2.96-10,6.55-15,10.8l-10,8.51c-4,3.9-8,6.7-11,8.4-3,1.8-7,2.7-11,2.7l-7-0.8c-8-2.1-13-6.1-16-12.2-16-1.94-29-2.9-37-2.9"/>
  </g>
  <path d="M 92.883 133.315 L 92.883 132.063 L 88.992 132.332 C 87.891 132.399 87.064 132.636 86.507 133.03 C 85.951 133.428 85.673 133.982 85.673 134.689 C 85.673 135.376 85.947 135.926 86.501 136.331 C 87.049 136.743 87.787 136.944 88.711 136.944 C 89.3 136.944 89.853 136.853 90.363 136.673 C 90.87 136.493 91.317 136.24 91.69 135.919 C 92.064 135.6 92.355 135.22 92.564 134.777 C 92.778 134.334 92.883 133.846 92.883 133.315 Z M 85.229 82.921 C 42.847 82.921 9.278 116.49 9.278 158.872 C 9.278 201.259 42.847 234.826 85.229 234.826 C 127.613 234.826 161.183 201.259 161.183 158.872 C 161.183 116.49 127.616 82.921 85.229 82.921 Z M 99.974 127.94 C 100.334 126.933 100.838 126.069 101.492 125.351 C 102.148 124.634 102.936 124.083 103.858 123.694 C 104.781 123.305 105.81 123.112 106.938 123.112 C 107.962 123.112 108.883 123.264 109.703 123.569 C 110.526 123.873 111.23 124.283 111.819 124.799 C 112.408 125.315 112.878 125.914 113.22 126.603 C 113.565 127.291 113.769 128.021 113.84 128.785 L 110.79 128.785 C 110.714 128.363 110.575 127.969 110.378 127.607 C 110.178 127.243 109.917 126.929 109.597 126.663 C 109.273 126.395 108.891 126.186 108.454 126.037 C 108.014 125.882 107.526 125.809 106.97 125.809 C 106.326 125.809 105.735 125.942 105.212 126.201 C 104.684 126.461 104.235 126.829 103.861 127.306 C 103.488 127.782 103.199 128.363 102.996 129.045 C 102.787 129.728 102.683 130.487 102.683 131.321 C 102.683 132.185 102.787 132.959 102.996 133.643 C 103.199 134.325 103.49 134.9 103.873 135.374 C 104.25 135.844 104.708 136.208 105.238 136.457 C 105.767 136.705 106.355 136.834 106.991 136.834 C 108.035 136.834 108.883 136.588 109.542 136.099 C 110.201 135.606 110.625 134.89 110.822 133.945 L 113.878 133.945 C 113.788 134.78 113.557 135.54 113.185 136.232 C 112.81 136.919 112.327 137.503 111.735 137.992 C 111.138 138.477 110.439 138.854 109.632 139.116 C 108.827 139.382 107.944 139.516 106.981 139.516 C 105.836 139.516 104.81 139.325 103.883 138.949 C 102.961 138.57 102.167 138.025 101.506 137.321 C 100.848 136.615 100.34 135.754 99.98 134.739 C 99.623 133.726 99.444 132.589 99.444 131.317 C 99.436 130.076 99.615 128.949 99.974 127.94 Z M 56.588 123.319 L 59.642 123.319 L 59.642 126.033 L 59.7 126.033 C 59.886 125.582 60.131 125.175 60.431 124.824 C 60.732 124.468 61.076 124.169 61.47 123.917 C 61.862 123.664 62.299 123.471 62.768 123.343 C 63.239 123.21 63.738 123.144 64.257 123.144 C 65.376 123.144 66.325 123.41 67.094 123.947 C 67.866 124.48 68.414 125.249 68.735 126.252 L 68.813 126.252 C 69.018 125.768 69.291 125.337 69.623 124.955 C 69.956 124.575 70.339 124.246 70.772 123.976 C 71.203 123.704 71.68 123.499 72.196 123.357 C 72.712 123.214 73.254 123.144 73.824 123.144 C 74.61 123.144 75.325 123.268 75.97 123.521 C 76.615 123.774 77.161 124.126 77.62 124.582 C 78.078 125.04 78.429 125.597 78.674 126.247 C 78.92 126.901 79.046 127.623 79.046 128.424 L 79.046 139.334 L 75.86 139.334 L 75.86 129.187 C 75.86 128.136 75.587 127.32 75.046 126.746 C 74.51 126.171 73.736 125.882 72.734 125.882 C 72.242 125.882 71.792 125.971 71.383 126.142 C 70.976 126.313 70.621 126.554 70.329 126.867 C 70.032 127.174 69.803 127.547 69.637 127.978 C 69.466 128.411 69.385 128.883 69.385 129.396 L 69.385 139.334 L 66.245 139.334 L 66.245 128.924 C 66.245 128.462 66.171 128.045 66.028 127.671 C 65.885 127.299 65.685 126.98 65.417 126.712 C 65.153 126.446 64.828 126.246 64.449 126.1 C 64.069 125.958 63.645 125.886 63.172 125.886 C 62.682 125.886 62.228 125.977 61.807 126.16 C 61.388 126.342 61.032 126.597 60.732 126.918 C 60.431 127.243 60.197 127.623 60.032 128.067 C 59.871 128.506 59.608 128.988 59.608 129.509 L 59.608 139.331 L 56.588 139.331 L 56.588 123.319 Z M 63.517 199.963 C 49.516 199.963 40.735 190.234 40.735 174.708 C 40.735 159.179 49.516 149.419 63.517 149.419 C 77.518 149.419 86.265 159.179 86.265 174.708 C 86.265 190.231 77.518 199.963 63.517 199.963 Z M 89.439 139.293 C 88.922 139.426 88.395 139.49 87.854 139.49 C 87.056 139.49 86.327 139.377 85.666 139.151 C 84.998 138.923 84.434 138.606 83.956 138.19 C 83.481 137.778 83.107 137.28 82.845 136.694 C 82.576 136.109 82.444 135.458 82.444 134.739 C 82.444 133.334 82.968 132.238 84.016 131.446 C 85.061 130.653 86.577 130.194 88.565 130.066 L 92.883 129.817 L 92.883 128.581 C 92.883 127.657 92.592 126.949 92.005 126.471 C 91.421 125.992 90.592 125.749 89.519 125.749 C 89.087 125.749 88.683 125.806 88.309 125.911 C 87.935 126.021 87.606 126.174 87.322 126.375 C 87.034 126.578 86.796 126.82 86.615 127.1 C 86.426 127.38 86.299 127.693 86.229 128.038 L 83.234 128.038 C 83.253 127.331 83.428 126.677 83.758 126.075 C 84.087 125.477 84.533 124.955 85.102 124.514 C 85.669 124.069 86.331 123.726 87.1 123.48 C 87.869 123.235 88.704 123.112 89.609 123.112 C 90.581 123.112 91.464 123.233 92.256 123.48 C 93.044 123.729 93.722 124.077 94.282 124.536 C 94.842 124.993 95.273 125.54 95.577 126.186 C 95.88 126.829 96.036 127.551 96.036 128.344 L 96.036 139.331 L 92.987 139.331 L 92.987 136.663 L 92.909 136.663 C 92.683 137.094 92.398 137.486 92.048 137.832 C 91.698 138.182 91.307 138.48 90.87 138.727 C 90.43 138.971 89.955 139.161 89.439 139.293 Z M 109.581 199.963 C 98.906 199.963 91.648 194.372 91.141 185.589 L 98.093 185.589 C 98.634 190.608 103.484 193.932 110.127 193.932 C 116.5 193.932 121.08 190.608 121.08 186.066 C 121.08 182.134 118.298 179.758 111.857 178.133 L 105.586 176.573 C 96.567 174.338 92.466 170.235 92.466 163.488 C 92.466 155.182 99.721 149.419 110.064 149.419 C 120.163 149.419 127.212 155.216 127.484 163.556 L 120.605 163.556 C 120.127 158.536 116.028 155.45 109.923 155.45 C 103.854 155.45 99.653 158.569 99.653 163.078 C 99.653 166.634 102.294 168.742 108.736 170.366 L 114.027 171.686 C 124.096 174.129 128.232 178.096 128.232 185.217 C 128.227 194.3 121.043 199.963 109.581 199.963 Z M 63.517 155.652 C 53.923 155.652 47.924 163.01 47.924 174.703 C 47.924 186.366 53.923 193.723 63.517 193.723 C 73.077 193.723 79.11 186.366 79.11 174.703 C 79.114 163.01 73.077 155.652 63.517 155.652 Z" style=""/>
  <path id="path17" d="M 494.481 378.665 C 494.481 380.188 493.361 381.211 492.036 381.211 L 492.036 381.202 C 490.674 381.211 489.575 380.188 489.575 378.665 C 489.575 377.14 490.674 376.12 492.036 376.12 C 493.361 376.12 494.481 377.14 494.481 378.665 Z M 495.472 378.665 C 495.472 376.573 493.848 375.358 492.036 375.358 C 490.212 375.358 488.588 376.573 488.588 378.665 C 488.588 380.755 490.214 381.974 492.036 381.974 C 493.848 381.974 495.472 380.755 495.472 378.665 M 491.465 378.944 L 491.833 378.944 L 492.685 380.441 L 493.623 380.441 L 492.678 378.881 C 493.166 378.846 493.568 378.614 493.568 377.957 C 493.568 377.14 493.004 376.878 492.051 376.878 L 490.673 376.878 L 490.673 380.441 L 491.465 380.441 L 491.465 378.944 M 491.465 378.34 L 491.465 377.482 L 492.017 377.482 C 492.317 377.482 492.725 377.507 492.725 377.872 C 492.725 378.272 492.514 378.34 492.161 378.34 L 491.465 378.34" style=""/>
  <path id="path19" d="M 472.334 360.442 L 476.617 372.161 L 467.917 372.161 L 472.334 360.442 Z M 467.746 355.878 L 457.873 380.891 L 464.845 380.891 L 466.407 376.471 L 478.088 376.471 L 479.566 380.891 L 487.135 380.891 L 477.189 355.875 L 467.746 355.878 Z M 447.925 380.9 L 454.999 380.9 L 454.999 355.871 L 447.924 355.868 L 447.925 380.9 Z M 398.826 355.868 L 392.925 375.708 L 387.272 355.871 L 379.641 355.868 L 387.715 380.9 L 397.903 380.9 L 406.043 355.868 L 398.826 355.868 Z M 427.414 361.319 L 430.453 361.319 C 434.864 361.319 437.716 363.298 437.716 368.437 C 437.716 373.576 434.864 375.557 430.453 375.557 L 427.414 375.557 L 427.414 361.319 Z M 420.401 355.868 L 420.401 380.9 L 431.869 380.9 C 437.977 380.9 439.971 379.885 442.127 377.606 C 443.652 376.007 444.636 372.497 444.636 368.66 C 444.636 365.14 443.803 362.003 442.35 360.049 C 439.73 356.552 435.956 355.868 430.325 355.868 L 420.401 355.868 Z M 353.405 355.834 L 353.405 380.9 L 360.537 380.9 L 360.537 361.867 L 366.064 361.869 C 367.893 361.869 369.198 362.325 370.079 363.266 C 371.198 364.456 371.654 366.378 371.654 369.894 L 371.654 380.9 L 378.564 380.9 L 378.564 367.052 C 378.564 357.167 372.265 355.834 366.1 355.834 L 353.405 355.834 Z M 409.019 355.868 L 409.02 380.9 L 416.091 380.9 L 416.091 355.868 L 409.019 355.868 Z" style=""/>
  <path id="path21" fill="#77B900" d="M 372.412 306.028 C 372.412 306.028 381.508 292.607 399.672 291.218 L 399.672 286.349 C 379.553 287.966 362.133 305.003 362.133 305.003 C 362.133 305.003 372 333.527 399.672 336.138 L 399.672 330.963 C 379.365 328.409 372.412 306.028 372.412 306.028 Z M 399.672 320.671 L 399.672 325.41 C 384.325 322.673 380.064 306.719 380.064 306.719 C 380.064 306.719 387.433 298.556 399.672 297.233 L 399.672 302.433 C 399.663 302.433 399.656 302.432 399.649 302.432 C 393.226 301.661 388.207 307.66 388.207 307.66 C 388.207 307.66 391.02 317.763 399.672 320.671 M 399.672 277.367 L 399.672 286.349 C 400.261 286.304 400.852 286.266 401.447 286.245 C 424.318 285.475 439.22 305.003 439.22 305.003 C 439.22 305.003 422.105 325.816 404.273 325.816 C 402.64 325.816 401.109 325.664 399.672 325.41 L 399.672 330.963 C 400.9 331.12 402.173 331.212 403.505 331.212 C 420.098 331.212 432.098 322.736 443.718 312.707 C 445.643 314.249 453.531 318.003 455.152 319.647 C 444.104 328.896 418.356 336.351 403.758 336.351 C 402.352 336.351 401 336.267 399.672 336.138 L 399.672 343.943 L 462.742 343.943 L 462.742 277.367 L 399.672 277.367 Z M 399.672 297.233 L 399.672 291.218 C 400.257 291.177 400.845 291.146 401.447 291.127 C 417.894 290.61 428.683 305.26 428.683 305.26 C 428.683 305.26 417.03 321.447 404.534 321.447 C 402.735 321.447 401.122 321.159 399.672 320.671 L 399.672 302.433 C 406.073 303.208 407.363 306.035 411.212 312.454 L 419.774 305.234 C 419.774 305.234 413.523 297.038 402.989 297.038 C 401.843 297.038 400.748 297.118 399.672 297.233" style=""/>
  <g fill="#0078d4" transform="matrix(3.097562, 0, 0, 3.097562, 178.130203, 83.828911)" style="">
    <rect x="2.2848e-15" y="-.00011033" width="23.105" height="23.105"/>
    <rect x="25.64" y="-.00011033" width="23.105" height="23.105"/>
    <rect x="2.2848e-15" y="25.642" width="23.105" height="23.105"/>
    <rect x="25.64" y="25.642" width="23.105" height="23.105"/>
  </g>
</svg>