<!DOCTYPE svg PUBLIC "-//W3C//DTD SVG 1.1//EN" "http://www.w3.org/Graphics/SVG/1.1/DTD/svg11.dtd">
<!-- Uploaded to: SVG Repo, www.svgrepo.com, Transformed by: SVG Repo Mixer Tools -->
<svg width="256px" height="256px" viewBox="-1.2 -1.2 26.40 26.40" fill="none" xmlns="http://www.w3.org/2000/svg">
<g id="SVGRepo_bgCarrier" stroke-width="0"/>
<g id="SVGRepo_tracerCarrier" stroke-linecap="round" stroke-linejoin="round"/>
<g id="SVGRepo_iconCarrier"> <path fill-rule="evenodd" clip-rule="evenodd" d="M15 9C15 10.6569 13.6569 12 12 12C10.3431 12 9 10.6569 9 9C9 7.34315 10.3431 6 12 6C13.6569 6 15 7.34315 15 9ZM10.9426 9C10.9426 9.58398 11.416 10.0574 12 10.0574C12.584 10.0574 13.0574 9.58398 13.0574 9C13.0574 8.41602 12.584 7.94261 12 7.94261C11.416 7.94261 10.9426 8.41602 10.9426 9Z" fill="#5FA0FF"/> <path fill-rule="evenodd" clip-rule="evenodd" d="M18.2782 13.9587C19.3564 12.5956 20 10.8729 20 9C20 4.58172 16.4183 1 12 1C7.58172 1 4 4.58172 4 9C4 10.8729 4.64363 12.5956 5.72178 13.9587C5.50329 14.2398 5.23945 14.6078 4.96309 15.0576C4.2804 16.1686 3.51309 17.7922 3.17533 19.8451C2.87756 21.6548 4.39622 23 6 23H18C19.6038 23 21.1224 21.6548 20.8247 19.8451C20.4869 17.7922 19.7196 16.1686 19.0369 15.0576C18.7606 14.6078 18.4967 14.2398 18.2782 13.9587ZM16.8391 15.371C15.4954 16.3932 13.8186 17 12 17C10.1814 17 8.50458 16.3932 7.16088 15.371C7.01215 15.5726 6.8433 15.8179 6.6671 16.1046C6.08686 17.0489 5.4352 18.429 5.14879 20.1698C5.0879 20.5398 5.39464 21 6 21H18C18.6054 21 18.9121 20.5398 18.8512 20.1698C18.5648 18.429 17.9131 17.0489 17.3329 16.1046C17.1567 15.8179 16.9879 15.5726 16.8391 15.371ZM5.97751 9C5.97751 12.3261 8.67387 15.0225 12 15.0225C15.3261 15.0225 18.0225 12.3261 18.0225 9C18.0225 5.67387 15.3261 2.97751 12 2.97751C8.67387 2.97751 5.97751 5.67387 5.97751 9Z" fill="#5FA0FF"/> </g>
</svg>