<?xml version="1.0" encoding="UTF-8"?>
<svg xmlns="http://www.w3.org/2000/svg" xmlns:xlink="http://www.w3.org/1999/xlink" width="500px" height="500px" viewBox="0 0 500 500" version="1.1">
<g id="surface1">
<rect x="0" y="0" width="500" height="500" style="fill:rgb(92.941177%,92.941177%,92.941177%);fill-opacity:1;stroke:none;"/>
<path style="fill:none;stroke-width:1;stroke-linecap:butt;stroke-linejoin:miter;stroke:rgb(0%,0%,0%);stroke-opacity:1;stroke-miterlimit:4;" d="M 0 0 L 700 0 L 700 700 L 0 700 Z M 0 0 " transform="matrix(0.714286,0,0,0.714286,0,0)"/>
<path style=" stroke:none;fill-rule:nonzero;fill:rgb(0%,0%,0%);fill-opacity:1;" d="M 87.414062 318.542969 C 84.746094 318.542969 82.582031 316.375 82.582031 313.710938 L 82.582031 137.375 L 71.664062 137.375 C 68.996094 137.375 66.832031 135.207031 66.832031 132.542969 C 66.832031 129.875 69 127.710938 71.664062 127.710938 L 87.414062 127.710938 C 90.082031 127.710938 92.246094 129.878906 92.246094 132.542969 L 92.246094 313.628906 C 92.246094 316.378906 90.082031 318.542969 87.414062 318.542969 Z M 87.414062 318.542969 "/>
<path style=" stroke:none;fill-rule:nonzero;fill:rgb(0%,0%,0%);fill-opacity:1;" d="M 87.414062 201.792969 L 72.582031 201.792969 C 69.914062 201.792969 67.75 199.625 67.75 196.960938 L 67.75 168.292969 C 67.75 165.625 69.917969 163.460938 72.582031 163.460938 L 87.414062 163.460938 C 90.082031 163.460938 92.246094 165.628906 92.246094 168.292969 L 92.246094 196.960938 C 92.246094 199.628906 90.082031 201.792969 87.414062 201.792969 Z M 77.414062 192.128906 L 82.582031 192.128906 L 82.582031 173.125 L 77.414062 173.125 Z M 77.414062 192.128906 "/>
<path style=" stroke:none;fill-rule:nonzero;fill:rgb(0%,0%,0%);fill-opacity:1;" d="M 86.914062 287.957031 L 72.082031 287.957031 C 69.414062 287.957031 67.25 285.789062 67.25 283.125 L 67.25 214.625 C 67.25 211.957031 69.417969 209.792969 72.082031 209.792969 L 86.914062 209.792969 C 89.582031 209.792969 91.746094 211.960938 91.746094 214.625 L 91.746094 283.125 C 91.746094 285.792969 89.582031 287.957031 86.914062 287.957031 Z M 76.914062 278.292969 L 82.082031 278.292969 L 82.082031 219.457031 L 76.914062 219.457031 Z M 76.914062 278.292969 "/>
<path style=" stroke:none;fill-rule:nonzero;fill:rgb(0%,0%,0%);fill-opacity:1;" d="M 331.335938 285.707031 C 302.503906 285.707031 275.5 267.707031 265.417969 239.042969 C 259.25 221.457031 260.25 202.539062 268.332031 185.707031 C 276.417969 168.875 290.5 156.207031 308.167969 150.039062 C 344.503906 137.289062 384.417969 156.457031 397.171875 192.707031 C 403.339844 210.289062 402.339844 229.207031 394.257812 246.042969 C 386.175781 262.875 372.089844 275.542969 354.425781 281.707031 C 346.839844 284.375 339.007812 285.707031 331.339844 285.707031 Z M 274.585938 235.789062 C 285.585938 267.039062 319.917969 283.621094 351.25 272.625 C 366.417969 267.292969 378.582031 256.375 385.5 241.957031 C 392.417969 227.457031 393.332031 211.121094 388 196.039062 C 377 164.789062 342.667969 148.207031 311.335938 159.207031 C 296.167969 164.539062 284.003906 175.457031 277.085938 189.871094 C 270.167969 204.289062 269.25 220.625 274.585938 235.789062 Z M 274.585938 235.789062 "/>
<path style=" stroke:none;fill-rule:nonzero;fill:rgb(0%,0%,0%);fill-opacity:1;" d="M 324.914062 202.457031 C 322.914062 202.457031 321.082031 201.207031 320.328125 199.207031 C 317.664062 191.539062 312.164062 185.457031 304.832031 181.957031 C 297.496094 178.460938 289.332031 178.039062 281.664062 180.707031 C 279.164062 181.625 276.414062 180.292969 275.496094 177.707031 C 274.578125 175.207031 275.914062 172.457031 278.496094 171.542969 C 288.582031 168.042969 299.414062 168.625 309.078125 173.207031 C 318.664062 177.792969 325.914062 185.960938 329.496094 195.960938 C 330.414062 198.460938 329.078125 201.210938 326.496094 202.125 C 325.996094 202.375 325.414062 202.457031 324.914062 202.457031 Z M 324.914062 202.457031 "/>
<path style=" stroke:none;fill-rule:nonzero;fill:rgb(0%,0%,0%);fill-opacity:1;" d="M 338.164062 202.628906 C 337.582031 202.628906 336.996094 202.542969 336.5 202.296875 C 334 201.378906 332.75 198.546875 333.667969 196.046875 C 336.5 188.464844 336.25 180.210938 332.914062 172.878906 C 329.582031 165.546875 323.582031 159.878906 316 157.046875 C 313.5 156.128906 312.25 153.296875 313.167969 150.796875 C 314.085938 148.296875 316.917969 147.046875 319.417969 147.964844 C 340 155.714844 350.5 178.796875 342.75 199.464844 C 341.914062 201.378906 340.082031 202.628906 338.164062 202.628906 Z M 338.164062 202.628906 "/>
<path style=" stroke:none;fill-rule:nonzero;fill:rgb(0%,0%,0%);fill-opacity:1;" d="M 348.164062 211.207031 C 346.5 211.207031 344.828125 210.289062 343.914062 208.707031 C 342.582031 206.375 343.414062 203.457031 345.746094 202.125 C 360.332031 193.957031 365.496094 175.460938 357.332031 160.875 C 355.996094 158.542969 356.832031 155.625 359.164062 154.292969 C 361.496094 152.960938 364.414062 153.792969 365.746094 156.125 C 376.578125 175.375 369.746094 199.710938 350.492188 210.542969 C 349.828125 211.039062 349 211.207031 348.164062 211.207031 Z M 348.164062 211.207031 "/>
<path style=" stroke:none;fill-rule:nonzero;fill:rgb(0%,0%,0%);fill-opacity:1;" d="M 356.914062 224.871094 C 354.414062 224.871094 351.914062 224.621094 349.414062 224.203125 C 346.832031 223.707031 345.082031 221.207031 345.582031 218.539062 C 346.078125 215.953125 348.578125 214.203125 351.246094 214.703125 C 367.664062 217.789062 383.496094 206.953125 386.664062 190.539062 C 387.164062 187.953125 389.664062 186.207031 392.328125 186.703125 C 394.914062 187.203125 396.664062 189.703125 396.164062 192.371094 C 394.164062 202.871094 388.246094 211.957031 379.414062 217.953125 C 372.664062 222.539062 364.832031 224.871094 356.914062 224.871094 Z M 356.914062 224.871094 "/>
<path style=" stroke:none;fill-rule:nonzero;fill:rgb(0%,0%,0%);fill-opacity:1;" d="M 370.835938 248.542969 C 369.503906 248.542969 368.167969 248.460938 366.835938 248.375 C 356.25 247.292969 346.667969 242.210938 339.832031 233.957031 C 338.167969 231.875 338.417969 228.875 340.5 227.125 C 342.585938 225.460938 345.585938 225.707031 347.332031 227.792969 C 352.5 234.042969 359.75 237.960938 367.75 238.710938 C 375.832031 239.542969 383.667969 237.128906 389.917969 231.960938 C 392 230.292969 395 230.542969 396.75 232.628906 C 398.417969 234.710938 398.167969 237.710938 396.082031 239.460938 C 388.835938 245.375 380 248.542969 370.835938 248.542969 Z M 370.835938 248.542969 "/>
<path style=" stroke:none;fill-rule:nonzero;fill:rgb(0%,0%,0%);fill-opacity:1;" d="M 365.835938 275.628906 C 365.835938 275.628906 365.753906 275.628906 365.835938 275.628906 C 355.085938 275.542969 345.085938 271.210938 337.667969 263.628906 C 330.253906 256.042969 326.167969 245.875 326.25 235.210938 C 326.25 232.542969 328.417969 230.460938 331.167969 230.460938 C 333.835938 230.460938 336 232.710938 335.917969 235.378906 C 335.832031 243.460938 338.914062 251.128906 344.582031 256.878906 C 350.25 262.628906 357.832031 265.878906 365.917969 265.960938 C 368.585938 265.960938 370.75 268.210938 370.664062 270.878906 C 370.667969 273.460938 368.5 275.628906 365.835938 275.628906 Z M 365.835938 275.628906 "/>
<path style=" stroke:none;fill-rule:nonzero;fill:rgb(0%,0%,0%);fill-opacity:1;" d="M 322.5 284.957031 C 321.417969 284.957031 320.25 284.542969 319.332031 283.789062 C 311.25 276.875 306.332031 267.125 305.5 256.542969 C 304.664062 245.875 308.082031 235.542969 315 227.460938 C 316.75 225.460938 319.832031 225.210938 321.832031 226.960938 C 323.835938 228.710938 324.082031 231.792969 322.332031 233.792969 C 317.082031 239.960938 314.5 247.796875 315.085938 255.792969 C 315.667969 263.878906 319.417969 271.210938 325.582031 276.460938 C 327.585938 278.210938 327.832031 281.210938 326.082031 283.292969 C 325.167969 284.375 323.835938 284.957031 322.5 284.957031 Z M 322.5 284.957031 "/>
<path style=" stroke:none;fill-rule:nonzero;fill:rgb(0%,0%,0%);fill-opacity:1;" d="M 283.25 264.207031 C 280.917969 264.207031 278.917969 262.542969 278.5 260.125 C 274.917969 238.375 289.667969 217.792969 311.417969 214.207031 C 314.085938 213.792969 316.5 215.539062 317 218.207031 C 317.414062 220.875 315.667969 223.292969 313 223.792969 C 296.496094 226.542969 285.332031 242.125 288 258.625 C 288.414062 261.292969 286.664062 263.707031 283.996094 264.207031 Z M 283.25 264.207031 "/>
<path style=" stroke:none;fill-rule:nonzero;fill:rgb(0%,0%,0%);fill-opacity:1;" d="M 266.5 223.128906 C 265.664062 223.128906 264.835938 222.878906 264 222.460938 C 261.667969 221.128906 260.917969 218.128906 262.335938 215.878906 C 273.585938 196.878906 298.167969 190.628906 317.082031 201.878906 C 319.414062 203.210938 320.164062 206.210938 318.75 208.460938 C 317.414062 210.792969 314.414062 211.542969 312.167969 210.125 C 297.832031 201.628906 279.167969 206.375 270.664062 220.707031 C 269.746094 222.292969 268.164062 223.128906 266.5 223.128906 Z M 266.5 223.128906 "/>
<path style=" stroke:none;fill-rule:nonzero;fill:rgb(0%,0%,0%);fill-opacity:1;" d="M 331.335938 240.042969 C 321.335938 240.042969 312.003906 233.792969 308.503906 223.875 C 304.085938 211.292969 310.753906 197.460938 323.335938 193.042969 C 329.417969 190.875 336.003906 191.292969 341.835938 194.039062 C 347.667969 196.871094 352.085938 201.707031 354.167969 207.789062 C 356.335938 213.875 355.917969 220.457031 353.167969 226.289062 C 350.335938 232.125 345.5 236.539062 339.417969 238.621094 C 336.667969 239.625 334.003906 240.042969 331.335938 240.042969 Z M 317.585938 220.710938 C 320.253906 228.292969 328.503906 232.292969 336.085938 229.628906 C 339.75 228.378906 342.667969 225.710938 344.335938 222.210938 C 346 218.710938 346.25 214.792969 344.917969 211.128906 C 343.667969 207.460938 341 204.546875 337.5 202.878906 C 334.003906 201.210938 330.085938 200.960938 326.417969 202.292969 C 318.917969 204.792969 315 213.125 317.585938 220.710938 Z M 317.585938 220.710938 "/>
<path style=" stroke:none;fill-rule:nonzero;fill:rgb(0%,0%,0%);fill-opacity:1;" d="M 177.171875 285.707031 C 139.503906 285.707031 108.421875 255.625 107.421875 217.707031 C 106.425781 179.210938 136.921875 147.125 175.421875 146.128906 C 213.921875 145.128906 246.003906 175.628906 247 214.128906 C 248 252.628906 217.5 284.710938 179 285.707031 C 178.335938 285.625 177.75 285.707031 177.167969 285.707031 Z M 178.753906 275.957031 L 178.921875 280.789062 L 178.753906 275.957031 C 211.921875 275.121094 238.171875 247.457031 237.335938 214.289062 C 236.503906 181.707031 209.667969 155.707031 177.253906 155.707031 L 175.671875 155.707031 C 159.585938 156.121094 144.671875 162.792969 133.585938 174.457031 C 122.503906 186.121094 116.667969 201.375 117.085938 217.457031 C 117.917969 250.539062 145.585938 276.789062 178.753906 275.953125 Z M 178.753906 275.957031 "/>
<path style=" stroke:none;fill-rule:nonzero;fill:rgb(0%,0%,0%);fill-opacity:1;" d="M 123.585938 257.207031 C 121.003906 257.207031 118.835938 255.121094 118.753906 252.457031 C 118.171875 230.457031 135.671875 212.042969 157.671875 211.460938 C 160.335938 211.375 162.585938 213.460938 162.585938 216.128906 C 162.671875 218.796875 160.585938 221.042969 157.917969 221.042969 C 141.253906 221.460938 128.003906 235.375 128.417969 252.125 C 128.5 254.792969 126.417969 257.042969 123.75 257.042969 C 123.667969 257.207031 123.667969 257.207031 123.585938 257.207031 Z M 123.585938 257.207031 "/>
<path style=" stroke:none;fill-rule:nonzero;fill:rgb(0%,0%,0%);fill-opacity:1;" d="M 112.664062 214.292969 C 111.582031 214.292969 110.578125 213.960938 109.664062 213.210938 C 107.582031 211.542969 107.25 208.542969 108.914062 206.378906 C 122.664062 189.128906 147.832031 186.292969 165.082031 199.960938 C 167.164062 201.625 167.496094 204.628906 165.832031 206.792969 C 164.164062 208.960938 161.164062 209.210938 159 207.542969 C 145.914062 197.128906 126.832031 199.292969 116.414062 212.375 C 115.496094 213.625 114.078125 214.292969 112.664062 214.292969 Z M 112.664062 214.292969 "/>
<path style=" stroke:none;fill-rule:nonzero;fill:rgb(0%,0%,0%);fill-opacity:1;" d="M 173.335938 201.707031 C 171.085938 201.707031 169.085938 200.125 168.585938 197.875 C 165.253906 181.539062 149.253906 170.871094 132.835938 174.207031 C 130.253906 174.707031 127.667969 173.039062 127.167969 170.457031 C 126.667969 167.875 128.335938 165.289062 130.917969 164.789062 C 152.5 160.375 173.671875 174.375 178.085938 195.957031 C 178.585938 198.539062 176.921875 201.125 174.335938 201.625 C 173.917969 201.707031 173.667969 201.707031 173.335938 201.707031 Z M 173.335938 201.707031 "/>
<path style=" stroke:none;fill-rule:nonzero;fill:rgb(0%,0%,0%);fill-opacity:1;" d="M 186.414062 203.707031 C 185.664062 203.707031 184.832031 203.539062 184.082031 203.125 C 181.75 201.875 180.832031 198.875 182.164062 196.542969 C 190.164062 181.875 184.664062 163.460938 169.996094 155.460938 C 167.664062 154.210938 166.746094 151.210938 168.082031 148.878906 C 169.414062 146.542969 172.328125 145.625 174.664062 146.960938 C 193.996094 157.460938 201.246094 181.792969 190.660156 201.125 C 189.746094 202.792969 188.078125 203.707031 186.414062 203.707031 Z M 186.414062 203.707031 "/>
<path style=" stroke:none;fill-rule:nonzero;fill:rgb(0%,0%,0%);fill-opacity:1;" d="M 195.164062 213.621094 C 193.246094 213.621094 191.414062 212.457031 190.664062 210.539062 C 189.664062 208.039062 190.914062 205.289062 193.414062 204.289062 C 208.996094 198.207031 216.664062 180.539062 210.5 165.039062 C 209.5 162.539062 210.75 159.789062 213.25 158.789062 C 215.75 157.789062 218.5 159.039062 219.5 161.539062 C 227.582031 182.039062 217.414062 205.289062 196.917969 213.371094 C 196.332031 213.539062 195.746094 213.621094 195.164062 213.621094 Z M 195.164062 213.621094 "/>
<path style=" stroke:none;fill-rule:nonzero;fill:rgb(0%,0%,0%);fill-opacity:1;" d="M 206.75 228.707031 C 202.5 228.707031 198.167969 228.039062 194 226.621094 C 191.5 225.789062 190.082031 223.039062 190.914062 220.539062 C 191.75 218.039062 194.496094 216.621094 196.996094 217.457031 C 204.664062 220.039062 212.914062 219.457031 220.164062 215.875 C 227.414062 212.292969 232.832031 206.042969 235.417969 198.375 C 236.25 195.875 239 194.457031 241.5 195.292969 C 244 196.125 245.417969 198.875 244.582031 201.375 C 241.164062 211.457031 234.082031 219.707031 224.5 224.457031 C 218.917969 227.289062 212.832031 228.707031 206.75 228.707031 Z M 206.75 228.707031 "/>
<path style=" stroke:none;fill-rule:nonzero;fill:rgb(0%,0%,0%);fill-opacity:1;" d="M 217.335938 253.957031 C 203.835938 253.957031 190.753906 247.207031 183.171875 234.875 C 181.753906 232.625 182.503906 229.625 184.753906 228.210938 C 187 226.792969 190.003906 227.542969 191.417969 229.792969 C 200.167969 244.039062 218.835938 248.542969 233.082031 239.792969 C 235.332031 238.375 238.335938 239.125 239.75 241.375 C 241.167969 243.621094 240.414062 246.625 238.167969 248.039062 C 231.585938 252.125 224.421875 253.957031 217.335938 253.957031 Z M 217.335938 253.957031 "/>
<path style=" stroke:none;fill-rule:nonzero;fill:rgb(0%,0%,0%);fill-opacity:1;" d="M 203.835938 279.792969 C 203.585938 279.792969 203.335938 279.792969 203.085938 279.710938 C 181.253906 276.457031 166.253906 256.042969 169.503906 234.292969 C 169.917969 231.625 172.335938 229.875 175 230.210938 C 177.667969 230.628906 179.503906 233.042969 179.082031 235.710938 C 177.917969 243.710938 179.917969 251.710938 184.667969 258.210938 C 189.5 264.710938 196.5 268.960938 204.5 270.128906 C 207.167969 270.542969 209 272.960938 208.582031 275.628906 C 208.253906 278.042969 206.25 279.792969 203.835938 279.792969 Z M 203.835938 279.792969 "/>
<path style=" stroke:none;fill-rule:nonzero;fill:rgb(0%,0%,0%);fill-opacity:1;" d="M 159.671875 283.128906 C 158.335938 283.128906 157.003906 282.546875 156.089844 281.460938 C 149.003906 273.464844 145.507812 263.210938 146.171875 252.546875 C 146.839844 241.878906 151.589844 232.128906 159.589844 225.046875 C 161.589844 223.296875 164.675781 223.464844 166.421875 225.460938 C 168.171875 227.460938 168.003906 230.546875 166.007812 232.292969 C 159.925781 237.625 156.339844 245.046875 155.839844 253.128906 C 155.339844 261.210938 158.007812 268.964844 163.425781 275.046875 C 165.171875 277.046875 165.007812 280.128906 163.007812 281.878906 C 161.921875 282.714844 160.753906 283.128906 159.671875 283.128906 Z M 159.671875 283.128906 "/>
<path style=" stroke:none;fill-rule:nonzero;fill:rgb(0%,0%,0%);fill-opacity:1;" d="M 177.171875 240.042969 C 164.089844 240.042969 153.335938 229.628906 153.003906 216.460938 C 152.671875 203.125 163.257812 192.042969 176.589844 191.628906 C 183.007812 191.460938 189.171875 193.796875 193.835938 198.292969 C 198.503906 202.710938 201.171875 208.707031 201.335938 215.210938 C 201.503906 221.628906 199.167969 227.792969 194.671875 232.457031 C 190.171875 237.125 184.253906 239.792969 177.753906 239.957031 C 177.585938 240.042969 177.335938 240.042969 177.171875 240.042969 Z M 177.585938 230.375 L 177.753906 235.207031 L 177.585938 230.375 C 181.503906 230.292969 185.085938 228.710938 187.753906 225.875 C 190.421875 223.042969 191.835938 219.375 191.753906 215.542969 C 191.671875 211.625 190.089844 208.042969 187.253906 205.375 C 184.421875 202.707031 180.753906 201.292969 176.921875 201.375 C 168.921875 201.542969 162.589844 208.289062 162.757812 216.289062 C 162.835938 224.292969 169.585938 230.625 177.585938 230.375 Z M 177.585938 230.375 "/>
<path style=" stroke:none;fill-rule:nonzero;fill:rgb(0%,0%,0%);fill-opacity:1;" d="M 172.828125 318.542969 L 145.246094 318.542969 C 142.578125 318.542969 140.414062 316.375 140.414062 313.710938 L 140.414062 300.210938 C 140.414062 297.542969 142.582031 295.378906 145.246094 295.378906 C 147.914062 295.378906 150.078125 297.546875 150.078125 300.210938 L 150.078125 308.878906 L 167.992188 308.878906 L 167.992188 300.210938 C 167.992188 297.542969 170.160156 295.378906 172.824219 295.378906 C 175.492188 295.378906 177.660156 297.546875 177.660156 300.210938 L 177.660156 313.710938 C 177.664062 316.378906 175.496094 318.542969 172.828125 318.542969 Z M 172.828125 318.542969 "/>
<path style=" stroke:none;fill-rule:nonzero;fill:rgb(0%,0%,0%);fill-opacity:1;" d="M 297.914062 318.542969 L 187.664062 318.542969 C 184.996094 318.542969 182.832031 316.375 182.832031 313.710938 L 182.832031 300.210938 C 182.832031 297.542969 185 295.378906 187.664062 295.378906 C 190.332031 295.378906 192.496094 297.546875 192.496094 300.210938 L 192.496094 308.878906 L 293.082031 308.878906 L 293.082031 300.210938 C 293.082031 297.542969 295.25 295.378906 297.914062 295.378906 C 300.582031 295.378906 302.746094 297.546875 302.746094 300.210938 L 302.746094 313.710938 C 302.75 316.378906 300.582031 318.542969 297.914062 318.542969 Z M 297.914062 318.542969 "/>
<path style=" stroke:none;fill-rule:nonzero;fill:rgb(0%,0%,0%);fill-opacity:1;" d="M 345.085938 304.042969 L 100.921875 304.042969 C 98.253906 304.042969 96.089844 301.875 96.089844 299.210938 C 96.089844 296.542969 98.257812 294.378906 100.921875 294.378906 L 345 294.378906 C 388.25 294.378906 423.5 259.210938 423.5 215.878906 C 423.5 204.296875 421.082031 193.210938 416.167969 182.878906 L 405.417969 182.878906 C 403.582031 182.878906 401.917969 181.878906 401.082031 180.210938 C 387.585938 153.792969 360.832031 137.378906 331.167969 137.378906 L 133.339844 137.375 L 123.253906 152.625 C 122.335938 153.957031 120.839844 154.792969 119.253906 154.792969 L 101.085938 154.792969 C 98.417969 154.792969 96.253906 152.625 96.253906 149.960938 C 96.253906 147.292969 98.421875 145.128906 101.085938 145.128906 L 116.667969 145.128906 L 126.667969 129.875 C 127.585938 128.539062 129.085938 127.707031 130.671875 127.707031 L 331.257812 127.707031 C 363.503906 127.707031 392.757812 145.039062 408.34375 173.121094 L 419.175781 173.121094 C 421.007812 173.121094 422.675781 174.121094 423.507812 175.789062 C 429.925781 188.289062 433.175781 201.789062 433.175781 215.871094 C 433.175781 264.457031 393.671875 304.042969 345.089844 304.042969 Z M 345.085938 304.042969 "/>
<path style=" stroke:none;fill-rule:nonzero;fill:rgb(0%,0%,0%);fill-opacity:1;" d="M 273.335938 304.042969 C 271.835938 304.042969 270.335938 303.375 269.417969 302.042969 L 250.75 276.207031 L 210.917969 276.207031 C 208.25 276.207031 206.085938 274.039062 206.085938 271.375 C 206.085938 268.707031 208.253906 266.542969 210.917969 266.542969 L 253.167969 266.542969 C 254.75 266.542969 256.167969 267.292969 257.085938 268.542969 L 277.167969 296.375 C 278.75 298.542969 278.25 301.542969 276.085938 303.125 C 275.25 303.707031 274.25 304.042969 273.335938 304.042969 Z M 273.335938 304.042969 "/>
<path style=" stroke:none;fill-rule:nonzero;fill:rgb(0%,0%,0%);fill-opacity:1;" d="M 294.585938 167.128906 L 253.335938 167.128906 C 251.753906 167.128906 250.253906 166.292969 249.335938 165.042969 L 229.167969 135.296875 C 227.667969 133.046875 228.25 130.042969 230.5 128.546875 C 232.75 127.046875 235.753906 127.628906 237.25 129.878906 L 255.835938 157.460938 L 294.585938 157.460938 C 297.253906 157.460938 299.417969 159.628906 299.417969 162.292969 C 299.417969 164.960938 297.25 167.128906 294.585938 167.128906 Z M 294.585938 167.128906 "/>
<path style=" stroke:none;fill-rule:nonzero;fill:rgb(0%,0%,0%);fill-opacity:1;" d="M 143.421875 276.207031 L 86.921875 276.207031 C 84.253906 276.207031 82.085938 274.039062 82.085938 271.375 C 82.085938 268.707031 84.253906 266.542969 86.921875 266.542969 L 143.421875 266.542969 C 146.089844 266.542969 148.253906 268.710938 148.253906 271.375 C 148.253906 274.042969 146.085938 276.207031 143.421875 276.207031 Z M 143.421875 276.207031 "/>
<path style=" stroke:none;fill-rule:nonzero;fill:rgb(0%,0%,0%);fill-opacity:1;" d="M 100.921875 154.792969 L 87.421875 154.792969 C 84.753906 154.792969 82.589844 152.625 82.589844 149.960938 C 82.589844 147.292969 84.757812 145.128906 87.421875 145.128906 L 100.921875 145.128906 C 103.589844 145.128906 105.753906 147.296875 105.753906 149.960938 C 105.753906 152.628906 103.585938 154.792969 100.921875 154.792969 Z M 100.921875 154.792969 "/>
<path style=" stroke:none;fill-rule:nonzero;fill:rgb(0%,0%,0%);fill-opacity:1;" d="M 100.921875 304.042969 L 89.339844 304.042969 C 86.671875 304.042969 84.507812 301.875 84.507812 299.210938 C 84.507812 296.542969 86.675781 294.378906 89.339844 294.378906 L 100.921875 294.378906 C 103.589844 294.378906 105.753906 296.546875 105.753906 299.210938 C 105.753906 301.875 103.585938 304.042969 100.921875 304.042969 Z M 100.921875 304.042969 "/>
</g>
</svg>
